<svg width="291" height="101" viewBox="0 0 291 101" fill="none" xmlns="http://www.w3.org/2000/svg">
<path d="M1.7067 73.2943C3.97454 73.3234 8.54289 74.6733 10.31 74.2512C10.4878 74.2112 10.4842 74.022 10.3789 73.8874C8.36509 70.9764 3.97454 68.2619 0.124652 66.4061C-0.125718 66.2824 0.03394 65.8858 0.313338 65.9112C6.97173 66.5044 11.2752 70.9036 15.9161 75.3247C15.5532 73.9419 15.2811 72.5156 14.7913 71.1729C11.58 62.3926 10.7636 53.6014 10.9813 44.2462C11.3224 29.542 14.6751 15.864 23.2421 3.91072C23.7113 3.3188 24.3341 2.86807 25.0421 2.60808C25.7501 2.34808 26.5159 2.2889 27.2553 2.43703C31.3665 3.45952 33.1299 6.34504 35.3252 9.98014C35.63 10.5987 36.715 12.6801 35.9421 13.084C35.1692 13.4879 33.0646 11.3519 32.4986 10.7952C31.0472 9.35792 30.3795 8.8958 28.685 7.262C28.4843 7.04861 28.2403 6.88098 27.9694 6.7705C27.6985 6.66002 27.407 6.60928 27.1148 6.6217C26.8226 6.63413 26.5365 6.70943 26.2759 6.84252C26.0152 6.9756 25.7862 7.16334 25.6043 7.393C14.5627 22.4283 14.0293 58.1353 23.3256 78.323C23.3256 72.3591 22.4257 62.6764 23.0462 57.6986C25.5318 37.7838 32.0595 19.6083 46.5483 4.99507C53.0797 -1.57286 57.3541 -1.37637 64.6294 3.90344C76.4185 12.4763 81.8904 24.4259 79.3722 39.232C78.8279 42.4304 77.0717 45.4179 75.8416 48.5763C82.9717 53.5577 88.5415 60.0092 90.5191 69.2298C92.8486 80.106 86.4914 92.9362 76.2879 97.4155C67.9096 101.094 59.8397 101.462 52.1689 95.5597C50.1624 94.0169 47.5244 90.2035 46.5955 87.8601C46.5366 87.7093 46.5237 87.5443 46.5584 87.386C46.5931 87.2278 46.6738 87.0834 46.7904 86.9712C46.9069 86.859 47.0541 86.784 47.2132 86.7557C47.3722 86.7274 47.5361 86.747 47.6841 86.8122C48.4606 87.1761 51.0586 90.0579 51.7081 90.6511C60.2969 98.045 73.4359 98.0231 80.1705 88.5151C87.5437 78.283 86.7019 61.1154 74.4628 52.175C74.1688 51.9312 73.864 51.7056 73.708 51.5491C71.5599 53.5759 69.5642 55.952 67.2819 57.6222C64.8943 59.3688 61.839 59.7509 59.5784 57.7132C58.1923 56.4651 57.2308 54.1399 57.1001 52.2259C56.9042 49.3877 59.9739 46.7132 63.0473 46.5349C65.9502 46.0037 68.4902 46.7205 71.9699 46.7205C74.3684 41.2078 77.0136 34.458 75.1413 27.7772C72.7719 19.3244 68.0801 11.4029 60.315 6.46876C54.1211 2.528 54.3424 2.28784 48.8851 7.30203C41.4067 14.172 35.8223 22.5847 33.2061 32.4494C28.8519 48.7073 26.3119 64.6486 29.4724 81.2595C29.7663 82.795 32.8868 85.0183 34.1895 86.0262C38.9501 89.665 43.9067 93.0745 48.7654 96.6004C49.4762 97.0588 50.0762 97.6704 50.5216 98.3907C50.859 99.0347 51.3707 100.097 50.8554 100.679C50.3402 101.262 49.1826 100.93 48.5549 100.628C40.9204 96.9121 33.3089 93.1521 25.7204 89.3484C20.6006 86.7722 15.477 84.4834 12.3456 78.9125C11.1591 76.7984 7.22935 76.198 4.50068 75.019C3.55447 74.7223 2.58261 74.5152 1.59784 74.4004C1.21322 74.3604 0.741504 74.1384 0.75239 73.6909C0.759647 73.5089 1.44182 73.2906 1.7067 73.2943ZM70.4169 52.1641C70.8318 51.6411 71.168 51.0601 71.4148 50.4393C71.5127 49.9445 71.4982 48.8346 70.7471 48.5253C70.1557 48.2852 68.2253 48.2051 68.0983 48.1979C65.4059 47.9977 62.8296 48.1687 60.921 49.7734C59.9885 50.5594 59.7599 52.9501 60.228 54.1799C60.6343 55.2461 62.4051 56.3377 63.6642 56.5415C65.9828 56.9199 68.5954 54.3946 70.4169 52.1641Z" fill="black"/>
<path d="M115.032 63.112C116.739 62.5573 117.912 62.088 118.552 61.704C119.235 61.2773 119.747 60.9573 120.088 60.744L120.856 60.296C121.069 60.168 121.24 60.104 121.368 60.104C121.709 60.104 121.88 60.296 121.88 60.68C121.88 61.064 121.219 61.7467 119.896 62.728C118.573 63.6667 116.931 64.52 114.968 65.288C114.669 68.872 113.539 71.7733 111.576 73.992C109.613 76.2107 106.819 77.32 103.192 77.32C100.547 77.32 98.52 76.2747 97.112 74.184C95.704 72.0507 95 69.576 95 66.76C95 63.9013 95.832 61.2133 97.496 58.696C99.2027 56.1787 101.379 54.92 104.024 54.92C105.219 54.0667 106.627 53.64 108.248 53.64C109.912 53.64 111.448 54.5147 112.856 56.264C114.264 58.0133 114.989 60.296 115.032 63.112ZM110.872 66.376L108.568 66.504C106.605 66.504 104.941 65.928 103.576 64.776C102.211 63.5813 101.528 62.28 101.528 60.872C101.528 59.464 101.763 58.248 102.232 57.224C100.397 58.6747 99.48 61.5333 99.48 65.8C99.48 67.848 99.9067 69.8107 100.76 71.688C101.613 73.5227 102.957 74.44 104.792 74.44C106.627 74.44 108.056 73.672 109.08 72.136C110.104 70.5573 110.701 68.6373 110.872 66.376ZM106.904 55.752C106.221 55.752 105.688 56.072 105.304 56.712C104.92 57.3093 104.728 57.9707 104.728 58.696C104.728 60.2747 105.261 61.5547 106.328 62.536C107.437 63.5173 108.717 64.008 110.168 64.008H110.936C110.851 61.9173 110.488 60.0187 109.848 58.312C109.251 56.6053 108.269 55.752 106.904 55.752ZM123.305 73.544L123.369 75.528C123.369 76.7227 123.027 77.32 122.345 77.32C121.321 77.32 120.339 77.192 119.401 76.936C118.462 76.6373 117.992 76.2533 117.992 75.784C117.992 75.272 118.099 73.5867 118.312 70.728C118.569 67.8267 118.697 65.6507 118.697 64.2V60.424C118.697 58.376 118.91 57.1387 119.337 56.712C119.763 56.2853 120.51 55.6667 121.577 54.856C122.686 54.0453 123.475 53.64 123.945 53.64C124.457 53.64 124.777 53.7253 124.905 53.896C125.033 54.0667 125.097 54.3867 125.097 54.856C125.097 57.1173 124.67 59.2507 123.817 61.256C123.603 63.688 123.497 65.3733 123.497 66.312C123.667 66.056 124.563 64.6053 126.185 61.96C127.806 59.3147 129.171 57.3733 130.281 56.136C131.433 54.8987 132.457 54.28 133.353 54.28C134.249 54.28 135.038 54.5787 135.721 55.176C136.446 55.7733 136.809 56.52 136.809 57.416C136.809 59.2933 136.595 62.0667 136.169 65.736C135.785 69.3627 135.593 71.6667 135.593 72.648C135.593 73.5867 135.721 74.056 135.977 74.056C136.702 74.0133 137.705 73.1173 138.985 71.368C140.265 69.576 141.523 67.2933 142.761 64.52C144.041 61.7467 144.809 60.36 145.065 60.36C145.363 60.36 145.513 60.5307 145.513 60.872C145.513 62.0667 144.894 63.9653 143.657 66.568C140.286 73.736 137.449 77.32 135.145 77.32C133.481 77.32 132.222 76.9787 131.369 76.296C131.07 75.9973 130.921 75.2293 130.921 73.992C130.921 72.712 131.027 70.664 131.241 67.848C131.497 64.9893 131.625 62.856 131.625 61.448C131.625 60.04 131.369 59.336 130.857 59.336C130.387 59.336 129.107 60.808 127.017 63.752C124.926 66.6533 123.817 68.5093 123.689 69.32C123.433 70.8133 123.305 72.2213 123.305 73.544ZM160.047 77.32C158.383 77.32 157.124 76.9787 156.271 76.296C155.972 75.9973 155.823 75.2507 155.823 74.056C155.823 72.8187 155.865 71.176 155.951 69.128C154.841 71.9013 153.732 73.9707 152.623 75.336C151.556 76.6587 150.169 77.32 148.463 77.32C146.756 77.32 145.263 76.5307 143.983 74.952C142.703 73.3307 142.062 70.8133 142.062 67.4C142.062 63.944 143.023 60.8933 144.943 58.248C146.905 55.6027 149.465 54.28 152.623 54.28C153.988 54.28 155.524 55.176 157.231 56.968C157.572 56.4987 158.169 55.944 159.023 55.304C159.919 54.6213 160.665 54.28 161.263 54.28C161.903 54.28 162.223 55.0907 162.223 56.712C162.223 57.1387 162.095 57.9707 161.839 59.208C161.625 60.4453 161.369 61.3413 161.071 61.896C160.687 62.8773 160.495 66.3547 160.495 72.328C160.495 73.48 160.623 74.056 160.878 74.056C161.604 74.0133 162.607 73.1173 163.887 71.368C165.167 69.576 166.425 67.2933 167.663 64.52C168.943 61.7467 169.711 60.36 169.967 60.36C170.265 60.36 170.415 60.5307 170.415 60.872C170.415 62.0667 169.796 63.9653 168.559 66.568C165.188 73.736 162.351 77.32 160.047 77.32ZM152.239 56.84C151.044 56.84 149.764 57.736 148.399 59.528C147.076 61.2773 146.415 63.3467 146.415 65.736C146.415 68.1253 146.756 70.088 147.439 71.624C148.164 73.16 149.103 73.928 150.255 73.928C151.663 73.928 153.732 70.408 156.463 63.368C156.505 63.0267 156.548 62.4507 156.591 61.64C156.676 60.7867 156.74 60.1467 156.783 59.72C156.399 59.0373 155.716 58.3973 154.735 57.8C153.796 57.16 152.964 56.84 152.239 56.84ZM171.875 73.544L171.939 75.528C171.939 76.7227 171.597 77.32 170.915 77.32C169.891 77.32 168.909 77.192 167.971 76.936C167.032 76.6373 166.562 76.2533 166.562 75.784C166.562 75.272 166.669 73.5867 166.883 70.728C167.139 67.8267 167.267 65.6507 167.267 64.2V60.488C167.267 49.5653 169.208 42.6107 173.091 39.624C173.987 38.9413 174.904 38.6 175.843 38.6C176.269 38.6 176.696 39.0693 177.123 40.008C177.549 40.9467 177.763 42.1627 177.763 43.656C177.763 47.3253 177.144 50.76 175.907 53.96C174.669 57.16 173.411 59.6133 172.131 61.32C172.088 62.3867 172.067 64.0507 172.067 66.312C172.237 66.056 173.133 64.6053 174.755 61.96C176.376 59.3147 177.741 57.3733 178.851 56.136C180.003 54.8987 181.027 54.28 181.923 54.28C182.819 54.28 183.608 54.5787 184.291 55.176C185.016 55.7733 185.378 56.52 185.378 57.416C185.378 59.2933 185.165 62.0667 184.739 65.736C184.355 69.3627 184.163 71.6667 184.163 72.648C184.163 73.5867 184.291 74.056 184.547 74.056C185.272 74.0133 186.275 73.1173 187.555 71.368C188.835 69.576 190.093 67.2933 191.331 64.52C192.611 61.7467 193.379 60.36 193.635 60.36C193.933 60.36 194.083 60.5307 194.083 60.872C194.083 62.0667 193.464 63.9653 192.227 66.568C188.856 73.736 186.019 77.32 183.715 77.32C182.051 77.32 180.792 76.9787 179.939 76.296C179.64 75.9973 179.491 75.2293 179.491 73.992C179.491 72.712 179.597 70.664 179.811 67.848C180.067 64.9893 180.195 62.856 180.195 61.448C180.195 60.04 179.939 59.336 179.427 59.336C178.957 59.336 177.677 60.808 175.587 63.752C173.496 66.6533 172.387 68.5093 172.259 69.32C172.003 70.8133 171.875 72.2213 171.875 73.544ZM176.035 45.064C176.035 43.272 175.8 42.376 175.331 42.376C174.563 42.376 173.816 44.744 173.091 49.48C172.707 51.9973 172.429 54.92 172.259 58.248C174.776 53 176.035 48.6053 176.035 45.064ZM198.121 77.32C195.731 77.32 193.832 76.424 192.424 74.632C191.016 72.7973 190.312 70.728 190.312 68.424C190.312 63.7733 191.294 60.2533 193.257 57.864C195.219 55.4747 197.758 54.28 200.873 54.28C202.323 54.28 203.518 54.6853 204.457 55.496C205.395 56.264 205.865 57.3307 205.865 58.696C205.865 61.256 204.777 63.4107 202.601 65.16C200.467 66.8667 197.843 67.7627 194.729 67.848C194.899 69.512 195.454 70.9627 196.393 72.2C197.374 73.3947 198.505 73.992 199.785 73.992C201.065 73.992 202.217 73.6933 203.241 73.096C204.265 72.4987 205.203 71.6453 206.057 70.536C207.849 68.1893 209.385 65.5227 210.665 62.536C211.006 61.768 211.262 61.2133 211.433 60.872C211.646 60.5307 211.859 60.36 212.073 60.36C212.329 60.36 212.457 60.5307 212.457 60.872C212.457 63.0053 211.155 66.2053 208.553 70.472C205.737 75.0373 202.259 77.32 198.121 77.32ZM194.729 66.312C197.246 65.8853 199.081 65.0747 200.233 63.88C201.427 62.6853 202.025 61.128 202.025 59.208C202.025 57.288 201.406 56.328 200.169 56.328C198.675 56.328 197.417 57.3733 196.393 59.464C195.369 61.512 194.814 63.7947 194.729 66.312ZM214.055 73.544L214.119 75.528C214.119 76.7227 213.777 77.32 213.095 77.32C212.071 77.32 211.089 77.192 210.151 76.936C209.212 76.6373 208.742 76.2533 208.742 75.784C208.742 75.272 208.849 73.5867 209.062 70.728C209.319 67.8267 209.447 65.6507 209.447 64.2V60.424C209.447 58.376 209.66 57.1387 210.087 56.712C210.513 56.2853 211.26 55.6667 212.327 54.856C213.436 54.0453 214.225 53.64 214.695 53.64C215.207 53.64 215.527 53.7253 215.655 53.896C215.783 54.0667 215.847 54.3867 215.847 54.856C215.847 57.1173 215.42 59.2507 214.567 61.256C214.353 63.688 214.247 65.3733 214.247 66.312C214.417 66.056 215.313 64.6053 216.935 61.96C218.556 59.3147 219.921 57.3733 221.031 56.136C222.183 54.8987 223.207 54.28 224.103 54.28C224.999 54.28 225.788 54.5787 226.471 55.176C227.196 55.7733 227.559 56.52 227.559 57.416C227.559 59.2933 227.345 62.0667 226.919 65.736C226.535 69.3627 226.343 71.6667 226.343 72.648C226.343 73.5867 226.471 74.056 226.727 74.056C227.452 74.0133 228.455 73.1173 229.735 71.368C231.015 69.576 232.273 67.2933 233.511 64.52C234.791 61.7467 235.559 60.36 235.815 60.36C236.113 60.36 236.263 60.5307 236.263 60.872C236.263 62.0667 235.644 63.9653 234.407 66.568C231.036 73.736 228.199 77.32 225.895 77.32C224.231 77.32 222.972 76.9787 222.119 76.296C221.82 75.9973 221.671 75.2293 221.671 73.992C221.671 72.712 221.777 70.664 221.991 67.848C222.247 64.9893 222.375 62.856 222.375 61.448C222.375 60.04 222.119 59.336 221.607 59.336C221.137 59.336 219.857 60.808 217.767 63.752C215.676 66.6533 214.567 68.5093 214.439 69.32C214.183 70.8133 214.055 72.2213 214.055 73.544ZM237.805 73.544L237.869 75.528C237.869 76.7227 237.527 77.32 236.845 77.32C235.821 77.32 234.839 77.192 233.901 76.936C232.962 76.6373 232.492 76.2533 232.492 75.784C232.492 75.272 232.599 73.5867 232.812 70.728C233.069 67.8267 233.197 65.6507 233.197 64.2V60.424C233.197 58.376 233.41 57.1387 233.837 56.712C234.263 56.2853 235.01 55.6667 236.077 54.856C237.186 54.0453 237.975 53.64 238.445 53.64C238.957 53.64 239.277 53.7253 239.405 53.896C239.533 54.0667 239.597 54.3867 239.597 54.856C239.597 57.1173 239.17 59.2507 238.317 61.256C238.103 63.688 237.997 65.3733 237.997 66.312C238.167 66.056 239.063 64.6053 240.685 61.96C242.306 59.3147 243.671 57.3733 244.781 56.136C245.933 54.8987 246.957 54.28 247.853 54.28C248.749 54.28 249.538 54.5787 250.221 55.176C250.946 55.7733 251.309 56.52 251.309 57.416C251.309 59.2933 251.095 62.0667 250.669 65.736C250.285 69.3627 250.093 71.6667 250.093 72.648C250.093 73.5867 250.221 74.056 250.477 74.056C251.202 74.0133 252.205 73.1173 253.485 71.368C254.765 69.576 256.023 67.2933 257.261 64.52C258.541 61.7467 259.309 60.36 259.565 60.36C259.863 60.36 260.013 60.5307 260.013 60.872C260.013 62.0667 259.394 63.9653 258.157 66.568C254.786 73.736 251.949 77.32 249.645 77.32C247.981 77.32 246.722 76.9787 245.869 76.296C245.57 75.9973 245.421 75.2293 245.421 73.992C245.421 72.712 245.527 70.664 245.741 67.848C245.997 64.9893 246.125 62.856 246.125 61.448C246.125 60.04 245.869 59.336 245.357 59.336C244.887 59.336 243.607 60.808 241.517 63.752C239.426 66.6533 238.317 68.5093 238.189 69.32C237.933 70.8133 237.805 72.2213 237.805 73.544ZM274.547 77.32C272.883 77.32 271.624 76.9787 270.771 76.296C270.472 75.9973 270.323 75.2507 270.323 74.056C270.323 72.8187 270.365 71.176 270.451 69.128C269.341 71.9013 268.232 73.9707 267.123 75.336C266.056 76.6587 264.669 77.32 262.963 77.32C261.256 77.32 259.763 76.5307 258.483 74.952C257.203 73.3307 256.562 70.8133 256.562 67.4C256.562 63.944 257.523 60.8933 259.443 58.248C261.405 55.6027 263.965 54.28 267.123 54.28C268.488 54.28 270.024 55.176 271.731 56.968C272.072 56.4987 272.669 55.944 273.523 55.304C274.419 54.6213 275.165 54.28 275.763 54.28C276.403 54.28 276.723 55.0907 276.723 56.712C276.723 57.1387 276.595 57.9707 276.339 59.208C276.125 60.4453 275.869 61.3413 275.571 61.896C275.187 62.8773 274.995 66.3547 274.995 72.328C274.995 73.48 275.123 74.056 275.378 74.056C276.104 74.0133 277.107 73.1173 278.387 71.368C279.667 69.576 280.925 67.2933 282.163 64.52C283.443 61.7467 284.211 60.36 284.467 60.36C284.765 60.36 284.915 60.5307 284.915 60.872C284.915 62.0667 284.296 63.9653 283.059 66.568C279.688 73.736 276.851 77.32 274.547 77.32ZM266.739 56.84C265.544 56.84 264.264 57.736 262.899 59.528C261.576 61.2773 260.915 63.3467 260.915 65.736C260.915 68.1253 261.256 70.088 261.939 71.624C262.664 73.16 263.603 73.928 264.755 73.928C266.163 73.928 268.232 70.408 270.963 63.368C271.005 63.0267 271.048 62.4507 271.091 61.64C271.176 60.7867 271.24 60.1467 271.283 59.72C270.899 59.0373 270.216 58.3973 269.235 57.8C268.296 57.16 267.464 56.84 266.739 56.84Z" fill="black"/>
<path d="M100 100V87.28H95.08V86H106.4V87.28H101.48V100H100ZM105.821 100L112.221 86H113.681L120.081 100H118.521L112.641 86.86H113.241L107.361 100H105.821ZM108.341 96.26L108.781 95.06H116.921L117.361 96.26H108.341ZM124.414 100V87.28H119.494V86H130.814V87.28H125.894V100H124.414ZM136.094 100V87.28H131.174V86H142.494V87.28H137.574V100H136.094ZM150.783 100.12C149.729 100.12 148.749 99.9467 147.843 99.6C146.949 99.24 146.169 98.74 145.503 98.1C144.849 97.4467 144.336 96.6933 143.963 95.84C143.603 94.9733 143.423 94.0267 143.423 93C143.423 91.9733 143.603 91.0333 143.963 90.18C144.336 89.3133 144.849 88.56 145.503 87.92C146.169 87.2667 146.949 86.7667 147.843 86.42C148.736 86.06 149.716 85.88 150.783 85.88C151.836 85.88 152.809 86.06 153.703 86.42C154.596 86.7667 155.369 87.26 156.023 87.9C156.689 88.54 157.203 89.2933 157.563 90.16C157.936 91.0267 158.123 91.9733 158.123 93C158.123 94.0267 157.936 94.9733 157.563 95.84C157.203 96.7067 156.689 97.46 156.023 98.1C155.369 98.74 154.596 99.24 153.703 99.6C152.809 99.9467 151.836 100.12 150.783 100.12ZM150.783 98.8C151.623 98.8 152.396 98.66 153.103 98.38C153.823 98.0867 154.443 97.68 154.963 97.16C155.496 96.6267 155.909 96.0133 156.203 95.32C156.496 94.6133 156.643 93.84 156.643 93C156.643 92.16 156.496 91.3933 156.203 90.7C155.909 89.9933 155.496 89.38 154.963 88.86C154.443 88.3267 153.823 87.92 153.103 87.64C152.396 87.3467 151.623 87.2 150.783 87.2C149.943 87.2 149.163 87.3467 148.443 87.64C147.723 87.92 147.096 88.3267 146.563 88.86C146.043 89.38 145.629 89.9933 145.323 90.7C145.029 91.3933 144.883 92.16 144.883 93C144.883 93.8267 145.029 94.5933 145.323 95.3C145.629 96.0067 146.043 96.6267 146.563 97.16C147.096 97.68 147.723 98.0867 148.443 98.38C149.163 98.66 149.943 98.8 150.783 98.8ZM167.56 100.12C166.507 100.12 165.527 99.9467 164.62 99.6C163.727 99.24 162.947 98.74 162.28 98.1C161.627 97.4467 161.113 96.6933 160.74 95.84C160.38 94.9733 160.2 94.0267 160.2 93C160.2 91.9733 160.38 91.0333 160.74 90.18C161.113 89.3133 161.627 88.56 162.28 87.92C162.947 87.2667 163.727 86.7667 164.62 86.42C165.513 86.06 166.493 85.88 167.56 85.88C168.613 85.88 169.587 86.06 170.48 86.42C171.373 86.7667 172.147 87.26 172.8 87.9C173.467 88.54 173.98 89.2933 174.34 90.16C174.713 91.0267 174.9 91.9733 174.9 93C174.9 94.0267 174.713 94.9733 174.34 95.84C173.98 96.7067 173.467 97.46 172.8 98.1C172.147 98.74 171.373 99.24 170.48 99.6C169.587 99.9467 168.613 100.12 167.56 100.12ZM167.56 98.8C168.4 98.8 169.173 98.66 169.88 98.38C170.6 98.0867 171.22 97.68 171.74 97.16C172.273 96.6267 172.687 96.0133 172.98 95.32C173.273 94.6133 173.42 93.84 173.42 93C173.42 92.16 173.273 91.3933 172.98 90.7C172.687 89.9933 172.273 89.38 171.74 88.86C171.22 88.3267 170.6 87.92 169.88 87.64C169.173 87.3467 168.4 87.2 167.56 87.2C166.72 87.2 165.94 87.3467 165.22 87.64C164.5 87.92 163.873 88.3267 163.34 88.86C162.82 89.38 162.407 89.9933 162.1 90.7C161.807 91.3933 161.66 92.16 161.66 93C161.66 93.8267 161.807 94.5933 162.1 95.3C162.407 96.0067 162.82 96.6267 163.34 97.16C163.873 97.68 164.5 98.0867 165.22 98.38C165.94 98.66 166.72 98.8 167.56 98.8ZM181.212 100L187.612 86H189.072L195.472 100H193.912L188.032 86.86H188.632L182.752 100H181.212ZM183.732 96.26L184.172 95.06H192.312L192.752 96.26H183.732ZM197.788 100V86H199.008L208.668 98.16H208.028V86H209.488V100H208.268L198.628 87.84H199.268V100H197.788ZM214.057 100V86H219.757C221.251 86 222.557 86.3 223.677 86.9C224.811 87.4867 225.691 88.3067 226.317 89.36C226.944 90.4133 227.257 91.6267 227.257 93C227.257 94.3733 226.944 95.5867 226.317 96.64C225.691 97.6933 224.811 98.52 223.677 99.12C222.557 99.7067 221.251 100 219.757 100H214.057ZM215.537 98.72H219.677C220.917 98.72 221.991 98.48 222.897 98C223.817 97.5067 224.531 96.8333 225.037 95.98C225.544 95.1133 225.797 94.12 225.797 93C225.797 91.8667 225.544 90.8733 225.037 90.02C224.531 89.1667 223.817 88.5 222.897 88.02C221.991 87.5267 220.917 87.28 219.677 87.28H215.537V98.72ZM233.575 100L239.975 86H241.435L247.835 100H246.275L240.395 86.86H240.995L235.115 100H233.575ZM236.095 96.26L236.535 95.06H244.675L245.115 96.26H236.095ZM250.151 100V86H255.391C256.578 86 257.598 86.1933 258.451 86.58C259.304 86.9533 259.958 87.5 260.411 88.22C260.878 88.9267 261.111 89.7867 261.111 90.8C261.111 91.7867 260.878 92.64 260.411 93.36C259.958 94.0667 259.304 94.6133 258.451 95C257.598 95.3733 256.578 95.56 255.391 95.56H250.971L251.631 94.88V100H250.151ZM259.711 100L256.111 94.92H257.711L261.331 100H259.711ZM251.631 95L250.971 94.3H255.351C256.751 94.3 257.811 93.9933 258.531 93.38C259.264 92.7667 259.631 91.9067 259.631 90.8C259.631 89.68 259.264 88.8133 258.531 88.2C257.811 87.5867 256.751 87.28 255.351 87.28H250.971L251.631 86.58V95ZM267.129 100V87.28H262.209V86H273.529V87.28H268.609V100H267.129Z" fill="black"/>
</svg>
