<svg width="227" height="210" viewBox="0 0 227 210" fill="none" xmlns="http://www.w3.org/2000/svg">
<path d="M7.16999 170.082C12.7268 169.329 24.3078 170.455 28.5042 168.957C28.9271 168.811 28.8615 168.425 28.5636 168.187C22.7634 162.949 11.2079 158.966 1.23263 156.547C0.583004 156.383 0.854566 155.514 1.54573 155.466C18.0127 154.293 29.8608 161.757 42.541 169.144C41.2384 166.444 40.1446 163.621 38.5433 161.047C28.0524 144.222 23.417 126.515 21.1422 107.283C17.5641 77.0547 21.6617 47.8477 39.0329 20.3024C40.003 18.9223 41.3914 17.7761 43.0455 16.9899C44.6995 16.2037 46.5552 15.808 48.4085 15.8461C58.7728 16.4655 63.9528 21.7411 70.4142 28.3966C71.3455 29.5538 74.6242 33.4262 72.8547 34.5303C71.0851 35.6344 65.2956 32.0158 63.7437 31.0789C59.7616 28.6566 57.9896 27.9498 53.3539 25.2123C52.799 24.8473 52.1517 24.5916 51.4557 24.4626C50.7598 24.3335 50.0316 24.3341 49.3205 24.4643C48.6094 24.5946 47.932 24.8513 47.3344 25.2173C46.7367 25.5832 46.2328 26.0497 45.8567 26.5851C23.3564 61.328 32.7667 134.627 61.5673 172.627C59.7776 160.416 54.6705 140.914 54.6947 130.5C54.7991 88.8342 65.3143 49.2804 96.3743 14.1658C110.382 -1.62351 120.898 -2.75386 140.28 5.44757C171.694 18.7728 188.666 41.2768 186.948 72.4941C186.577 79.2379 183.177 85.9842 181.115 92.8919C200.053 100.534 215.615 111.746 223.22 129.916C232.183 151.349 220.481 179.897 196.863 192.727C177.471 203.263 157.839 206.909 137.302 197.575C131.93 195.136 124.332 188.274 121.357 183.809C121.167 183.522 121.086 183.188 121.124 182.852C121.161 182.516 121.315 182.191 121.567 181.92C121.818 181.648 122.155 181.442 122.536 181.327C122.917 181.212 123.324 181.193 123.705 181.274C125.714 181.74 132.935 186.709 134.702 187.691C157.932 199.749 190.068 194.994 203.691 173.112C218.658 149.518 211.447 114.671 178.822 100.754C178.03 100.361 177.216 100.008 176.788 99.7436C172.141 104.664 167.972 110.244 162.889 114.482C157.573 118.914 150.213 120.792 144.071 117.43C140.306 115.372 137.256 110.956 136.362 107.084C135.031 101.344 141.738 94.767 149.203 93.2999C156.145 91.1714 162.574 91.7283 171.087 90.4806C175.3 78.3337 179.746 63.5653 173.161 50.5583C164.827 34.1014 150.972 19.5649 130.495 12.2468C114.16 6.39932 114.629 5.82825 102.783 18.0512C86.5497 34.7985 75.4128 54.0254 71.9728 75.1606C66.1994 110.009 64.7694 143.558 77.4859 176.435C78.6657 179.473 86.967 182.906 90.4562 184.503C103.195 190.246 116.344 195.45 129.288 200.927C131.164 201.61 132.816 202.647 134.121 203.962C135.14 205.16 136.711 207.152 135.625 208.529C134.539 209.905 131.608 209.642 129.982 209.249C110.19 204.378 90.4405 199.408 70.7346 194.342C57.4363 190.903 44.2153 188.054 34.8829 177.77C31.3457 173.867 21.5519 174.047 14.5227 172.612C12.1189 172.344 9.67919 172.268 7.23563 172.386C6.28267 172.442 5.06207 172.157 4.95439 171.236C4.91755 170.861 6.52088 170.17 7.16999 170.082ZM168.921 102.183C169.779 100.963 170.427 99.653 170.845 98.2936C170.936 97.2453 170.567 94.9782 168.637 94.6143C167.118 94.3346 162.371 94.8629 162.059 94.8935C155.412 95.4492 149.161 96.7231 144.973 100.693C142.927 102.637 143.086 107.613 144.6 109.963C145.914 112.001 150.573 113.601 153.715 113.566C159.501 113.51 165.134 107.403 168.921 102.183V102.183Z" fill="#FEBEB5"/>
</svg>
