<svg width="40" height="40" viewBox="0 0 40 40" fill="none" xmlns="http://www.w3.org/2000/svg">
<path d="M20 0C8.97194 0 0 8.97194 0 20C0 31.0281 8.97194 40 20 40C31.0281 40 40 31.0281 40 20C40 8.97194 31.0281 0 20 0ZM33.2234 9.22306C35.6027 12.13 37.0435 15.8325 37.081 19.8646C36.5178 19.7455 30.8699 18.5999 25.1857 19.3148C24.7219 18.1824 24.284 17.1863 23.6844 15.9588C30.0006 13.38 32.8632 9.71024 33.2234 9.22306V9.22306ZM31.3243 7.24758C31.017 7.68524 28.4455 11.1416 22.371 13.4185C19.5716 8.27524 16.469 4.05008 15.9968 3.41782C21.4142 2.11194 27.1231 3.52024 31.3243 7.24758V7.24758ZM12.7372 4.56613C13.1876 5.18379 16.2402 9.41419 19.0708 14.4459C11.0799 16.5679 4.04177 16.5373 3.27774 16.5273C4.38548 11.2262 7.9579 6.8204 12.7372 4.56613ZM2.91694 20.026C2.91694 19.8514 2.9204 19.6775 2.92565 19.504C3.67306 19.5194 11.9515 19.626 20.4826 17.0729C20.9716 18.03 21.4388 19.0015 21.8676 19.972C15.6902 21.7119 10.0777 26.7081 7.30863 31.4483C4.58016 28.4198 2.91694 24.4137 2.91694 20.026ZM9.51427 33.5029C11.2987 29.8551 16.1415 25.1463 23.0287 22.7968C25.4271 29.0293 26.419 34.2527 26.673 35.7514C21.1801 38.0912 14.575 37.4493 9.51427 33.5029V33.5029ZM29.5449 34.1875C29.3698 33.1483 28.4606 28.1474 26.2262 22.0074C31.5794 21.1505 36.2827 22.5532 36.8671 22.7377C36.1056 27.491 33.3773 31.596 29.5449 34.1875Z" fill="#2B2B2B"/>
</svg>
