<svg width="42" height="48" viewBox="0 0 42 48" fill="none" xmlns="http://www.w3.org/2000/svg">
<path d="M21 0C15.4325 0.00589795 10.0949 1.99452 6.15803 5.52964C2.22119 9.06477 0.00659051 13.8577 2.23418e-05 18.8571C-0.0066459 22.9427 1.47953 26.9173 4.23056 30.1714C4.23056 30.1714 4.80329 30.8486 4.89684 30.9463L21 48L37.1108 30.9377C37.1948 30.8469 37.7694 30.1714 37.7694 30.1714L37.7713 30.1663C40.521 26.9136 42.0065 22.9408 42 18.8571C41.9934 13.8577 39.7788 9.06477 35.842 5.52964C31.9051 1.99452 26.5675 0.00589795 21 0V0ZM21 25.7143C19.4897 25.7143 18.0133 25.3121 16.7575 24.5586C15.5017 23.8052 14.5229 22.7342 13.9449 21.4813C13.367 20.2283 13.2157 18.8495 13.5104 17.5194C13.805 16.1892 14.5323 14.9674 15.6003 14.0084C16.6682 13.0494 18.0289 12.3963 19.5102 12.1318C20.9915 11.8672 22.5269 12.003 23.9223 12.522C25.3177 13.041 26.5103 13.9199 27.3494 15.0475C28.1885 16.1752 28.6364 17.5009 28.6364 18.8571C28.6338 20.6751 27.8285 22.4179 26.3969 23.7034C24.9654 24.9888 23.0245 25.712 21 25.7143V25.7143Z" fill="#2B2B2B"/>
</svg>
